<?xml version="1.0" encoding="utf-8"?>
<!-- Generator: Adobe Illustrator 21.0.2, SVG Export Plug-In . SVG Version: 6.00 Build 0)  -->
<svg version="1.1" id="Layer_1" xmlns="http://www.w3.org/2000/svg" xmlns:xlink="http://www.w3.org/1999/xlink" x="0px" y="0px"
	 viewBox="0 0 100 100" style="enable-background:new 0 0 100 100;" xml:space="preserve">
<style type="text/css">
	.st0{clip-path:url(#SVGID_2_);fill:#00529B;}
	.st1{fill:#00529B;}
	.st2{clip-path:url(#SVGID_4_);fill:#00529B;}
</style>
<g>
	<defs>
		<rect id="SVGID_1_" x="14.5" y="0.6" width="70.9" height="98.8"/>
	</defs>
	<clipPath id="SVGID_2_">
		<use xlink:href="#SVGID_1_"  style="overflow:visible;"/>
	</clipPath>
	<path class="st0" d="M64.4,27.6c2.8,0,5.1,2.2,5.1,5.1s-2.2,5.1-5.1,5.1c-2.8,0-5.1-2.2-5.1-5.1S61.5,27.6,64.4,27.6 M64.4,24.2
		c-4.6,0-8.4,3.8-8.4,8.4c0,4.6,3.8,8.4,8.4,8.4c4.6,0,8.4-3.8,8.4-8.4C72.8,28,69,24.2,64.4,24.2"/>
	<path class="st0" d="M66,32.7c0,0.9-0.8,1.7-1.7,1.7c-0.9,0-1.7-0.8-1.7-1.7s0.8-1.7,1.7-1.7C65.3,31,66,31.8,66,32.7"/>
	<path class="st0" d="M71.4,31.1c-0.9,0-1.7,0.8-1.6,1.8c0,0.5,0.3,1,0.7,1.3c9.1,6.7,13.3,18.2,10.9,29.2
		c-2.4,11-11.1,19.6-22.1,21.9c-0.9,0.2-1.5,1-1.4,2c0.2,0.9,1,1.5,2,1.4c0,0,0.1,0,0.1,0C72.3,86,82,76.4,84.7,64.1
		c2.7-12.3-2.1-25.1-12.2-32.6C72.2,31.2,71.8,31.1,71.4,31.1"/>
	<path class="st0" d="M55.1,84.2c0,0.9-0.8,1.7-1.7,1.7c-0.9,0-1.7-0.8-1.7-1.7s0.8-1.7,1.7-1.7C54.3,82.5,55.1,83.3,55.1,84.2"/>
	<path class="st0" d="M67.9,36.9c-0.9,0-1.7,0.8-1.7,1.7c0,0.5,0.3,1,0.7,1.3c6.5,5.1,9.6,13.4,8,21.6c-1.6,8.1-7.7,14.6-15.6,16.8
		c-0.9,0.3-1.4,1.2-1.2,2.1c0.3,0.9,1.2,1.4,2.1,1.2c9.2-2.6,16.2-10.1,18-19.4c1.9-9.4-1.7-19-9.2-24.9
		C68.7,37,68.3,36.9,67.9,36.9z"/>
	<path class="st0" d="M53.4,79.1c2.8,0,5.1,2.2,5.1,5.1c0,2.8-2.2,5.1-5.1,5.1c-2.8,0-5.1-2.2-5.1-5.1
		C48.3,81.4,50.6,79.1,53.4,79.1 M53.4,75.8c-4.6,0-8.4,3.8-8.4,8.4c0,4.6,3.8,8.4,8.4,8.4s8.4-3.8,8.4-8.4
		C61.8,79.6,58,75.8,53.4,75.8"/>
	<path class="st0" d="M27.6,71.6c-0.9,0-1.7,0.7-1.7,1.6c0,0.3,0.1,0.7,0.3,1c4.6,7.3,11.9,12.5,20.4,14.3c0.9,0.2,1.8-0.4,2-1.3
		c0.2-0.9-0.4-1.8-1.3-2C39.7,83.6,33.1,79,29,72.4C28.7,71.9,28.2,71.6,27.6,71.6z"/>
	<path class="st0" d="M36.1,71.6c-0.9,0-1.7,0.7-1.7,1.6c0,0.5,0.2,0.9,0.5,1.2c3.3,3.5,7.5,6,12.1,7.2c0.9,0.2,1.8-0.3,2.1-1.2
		c0.2-0.9-0.3-1.8-1.2-2.1c0,0,0,0,0,0c-4-1-7.7-3.2-10.5-6.3C37,71.8,36.6,71.6,36.1,71.6z"/>
	<path class="st0" d="M58.4,35.2c-0.4,0-0.9,0.2-1.2,0.5l-6.7,6.8c-0.7,0.6-0.7,1.7,0,2.4c0.6,0.7,1.7,0.7,2.4,0c0,0,0,0,0,0
		l6.7-6.8c0.7-0.7,0.7-1.7,0-2.4C59.3,35.4,58.9,35.2,58.4,35.2 M62.6,5.7c-0.4,0-0.9,0.2-1.2,0.5L37.8,29.8c-0.7,0.6-0.7,1.7,0,2.4
		c0.6,0.7,1.7,0.7,2.4,0c0,0,0,0,0,0L62.7,9.7L72.9,20l-5.6,5.6c-0.7,0.7-0.7,1.7,0,2.4c0.7,0.7,1.7,0.7,2.4,0l6.7-6.8
		c0.7-0.7,0.7-1.7,0-2.4L63.9,6.2C63.5,5.8,63.1,5.7,62.6,5.7"/>
	<path class="st0" d="M41.5,31.9c-0.4,0-0.9,0.2-1.2,0.5l-11,11c-0.7,0.7-0.7,1.7,0,2.4l7.6,7.6c0.7,0.7,1.7,0.7,2.4,0l11-11
		c0.7-0.6,0.7-1.7,0-2.4c-0.6-0.7-1.7-0.7-2.4,0c0,0,0,0,0,0l-9.8,9.8L33,44.5l9.8-9.8c0.7-0.7,0.7-1.7,0-2.4
		C42.4,32,42,31.8,41.5,31.9"/>
	<path class="st0" d="M74.5,0.6c-0.4,0-0.9,0.2-1.2,0.5l-8.4,8.4c-0.7,0.6-0.7,1.7,0,2.4c0.6,0.7,1.7,0.7,2.4,0c0,0,0,0,0,0l7.2-7.2
		L78,8.2l-7.2,7.2c-0.7,0.6-0.7,1.7,0,2.4c0.6,0.7,1.7,0.7,2.4,0c0,0,0,0,0,0l8.4-8.4c0.7-0.7,0.7-1.7,0-2.4l-5.9-5.9
		C75.4,0.8,74.9,0.6,74.5,0.6"/>
	<path class="st0" d="M36.5,26.8c-0.9,0-1.7,0.8-1.7,1.7c0,0.5,0.2,0.9,0.5,1.2L53,47.4c0.6,0.7,1.7,0.7,2.4,0
		c0.7-0.6,0.7-1.7,0-2.4c0,0,0,0,0,0L37.7,27.3C37.4,27,36.9,26.8,36.5,26.8"/>
</g>
<path class="st1" d="M17.9,68.2h26.2v3.4H17.9V68.2z M14.5,64.8v10.1h32.9v-1.7v-8.4H14.5z"/>
<rect x="22.1" y="58" class="st1" width="16.9" height="3.4"/>
<g>
	<defs>
		<rect id="SVGID_3_" x="14.5" y="0.6" width="70.9" height="98.8"/>
	</defs>
	<clipPath id="SVGID_4_">
		<use xlink:href="#SVGID_3_"  style="overflow:visible;"/>
	</clipPath>
	<path class="st2" d="M36.5,88.4c-0.6,0-1.1,0.3-1.4,0.8L30,96.8c-0.5,0.8-0.3,1.8,0.5,2.3c0.3,0.2,0.6,0.3,0.9,0.3h43.9
		c0.9,0,1.7-0.8,1.7-1.7c0-0.3-0.1-0.7-0.3-0.9l-5.1-7.6c-0.3-0.5-0.8-0.8-1.4-0.8H56.8v3.4h12.6l2.8,4.2H34.6l2.8-4.2H50v-3.4H36.5
		z"/>
</g>
</svg>
